# xmcd CD database file
#
# Track frame offsets:
#	150
#	20222
#	39955
#	59385
#	75525
#	95367
#	118375
#	141952
#	169910
#	192052
#
# Disc length: 2864 seconds
#
# Revision: 0
# Processed by: cddbd v1.5.1PL0 Copyright (c) Steve Scherf et al.
# Submitted via: CDex 1.51
#
DISCID=860b2e0a
DTITLE=TAICHI MASTER - DISCO*NNECTION
DYEAR=2005
DGENRE=Disco
TTITLE0=FANTOM OF THE DISCO
TTITLE1=DYNAMITE
TTITLE2=あ・い・ど・る featuring RYOJI(ケツメイシ)×宇多丸(RHYMESTER)
TTITLE3=THE STAR IS LAZY featuring meg
TTITLE4=LOVELOCITY featuring G.RINA
TTITLE5=WEEKEND SUPERSTAR featuring TWINKLE(洛陽船), additional production by DJ TASAKA
TTITLE6=THE AWAKING featuring JUN(ex.WINO)
TTITLE7=REVENGE OF OLDSCHOOLERS
TTITLE8=BEHIND THE CLOUDS featuring オオヤユウスケ(Polaris)
TTITLE9=フレテイタイ featuring LITTLE(KICK THE CAN CREW)×ハナレグミ
EXTD=YEAR: 2005
EXTT0=
EXTT1=
EXTT2=
EXTT3=
EXTT4=
EXTT5=
EXTT6=
EXTT7=
EXTT8=
EXTT9=
PLAYORDER=
